<svg width="40" height="40" viewBox="0 0 40 40" fill="none" xmlns="http://www.w3.org/2000/svg">
<path d="M38.2846 20.8608C38.1473 20.2413 38.0361 19.6135 37.8492 19.0087C37.5978 18.1978 37.8669 17.3961 37.8155 16.5916C37.7707 15.8833 37.5978 15.1686 37.0512 14.7395C36.4952 14.3022 36.2896 13.776 36.155 13.1546C35.941 12.1643 35.4336 11.4116 34.4973 10.9077C33.989 10.634 33.5423 10.2345 33.3629 9.59005C33.2508 9.19152 32.9714 8.78374 32.6546 8.50727C31.7669 7.73055 30.6979 7.25342 29.5906 6.84934C29.2663 6.73191 28.986 6.48779 28.6972 6.28529C28.1627 5.90987 27.6712 5.45586 27.0975 5.15442C26.0705 4.61626 24.9725 4.20479 23.7979 4.17057C23.1176 4.15023 22.4327 4.32592 21.7477 4.39157C21.2749 4.43688 20.7984 4.46832 20.3237 4.46277C19.5509 4.45352 18.7538 4.27691 18.0109 4.41006C16.7429 4.63753 15.4767 4.69116 14.203 4.68561C12.8509 4.67914 11.6445 5.00555 10.6026 5.89785C9.96439 6.44526 9.30467 6.97879 8.60571 7.44575C7.3984 8.25206 6.6088 9.34779 6.16213 10.6923C6.05747 11.0057 5.87806 11.101 5.60614 11.2165C5.20433 11.3885 4.73243 11.5624 4.482 11.8814C3.91666 12.6017 3.42047 13.3904 3.40271 14.3623C3.40085 14.4224 3.39337 14.4889 3.36534 14.5417C2.85513 15.5144 2.77477 16.6425 2.1842 17.6051C1.94405 17.9953 1.99544 18.6009 2.02721 19.1012C2.05898 19.5959 2.244 20.0795 2.34305 20.5723C2.42902 21.0051 2.42809 21.4637 2.57199 21.8733C2.85139 22.6649 4.23904 22.9663 5.03613 22.7213C5.73789 22.5058 6.39668 22.5299 7.06481 22.8313C7.57408 23.0606 8.09924 23.2548 8.68327 23.0902C8.78886 23.0606 8.92529 23.0976 9.03742 23.1337C9.71583 23.3537 10.2858 23.7282 10.7447 24.2793C10.8699 24.4291 11.0726 24.5225 11.253 24.6178C11.7408 24.8748 12.3734 25.0061 12.6958 25.3936C13.1873 25.9835 14.0096 26.3136 14.1909 27.156C14.1984 27.192 14.2554 27.2207 14.2946 27.2447C14.8413 27.5721 15.0945 28.0511 14.9964 28.6761C14.93 29.1033 15.1674 29.4075 15.4701 29.5499C15.9888 29.7913 16.0551 30.2259 16.1243 30.6725C16.2158 31.2587 16.2691 31.8524 16.3382 32.4423C16.4644 32.2879 16.5102 32.1316 16.5205 31.9726C16.5438 31.5666 16.5597 31.1598 16.5616 30.7539C16.5625 30.5717 16.5784 30.3581 16.4924 30.2148C16.1355 29.6193 16.3364 29.1033 16.6382 28.5698C16.7382 28.3941 16.8288 28.1278 16.7653 27.9623C16.5709 27.4528 16.2981 26.9738 16.0607 26.481C15.9897 26.3339 15.9364 26.1777 15.8757 26.026C15.928 26.002 15.9804 25.977 16.0327 25.953C16.5821 26.2831 16.8765 26.8018 17.0867 27.389C17.2334 27.7958 17.4353 28.2258 17.1811 28.6243C16.8382 29.1616 16.6298 29.6775 16.9727 30.2814C16.9802 30.2943 16.9793 30.3119 16.9793 30.3276C16.9746 30.9915 17.0438 31.6684 16.9372 32.3165C16.8699 32.7225 16.6204 33.1848 16.3046 33.4446C15.8701 33.8034 15.7552 33.8737 15.9561 34.4081C16.0196 34.5801 16.1009 34.7512 16.1252 34.9287C16.2056 35.527 16.4878 35.821 17.0923 35.9024C17.6091 35.9727 18.123 36.0883 18.6417 36.1114C19.5163 36.1502 20.4021 36.2011 21.2693 36.116C22.1346 36.0309 22.9793 35.7646 23.8409 35.6167C24.2782 35.5409 24.7473 35.6148 25.1734 35.5076C25.6724 35.3818 26.1359 35.122 26.6228 34.9417C27.5647 34.5931 28.4982 34.2408 29.2869 33.5935C29.655 33.2911 30.1269 33.084 30.4194 32.728C30.7941 32.2722 31.266 32.0493 31.7687 31.8015C32.0911 31.6443 32.3303 31.3151 32.5948 31.0507C32.9723 30.6743 33.3274 30.274 33.7171 29.9087C33.9806 29.6609 34.3086 29.4797 34.5674 29.2272C34.9711 28.8342 35.3701 28.4292 35.7186 27.9882C36.3186 27.2281 36.9661 26.4856 37.4268 25.6451C37.8006 24.9627 37.9183 24.1453 38.1697 23.3944C38.4491 22.5576 38.4743 21.7143 38.2846 20.8608ZM8.06747 20.6519C7.81704 20.5021 7.5311 20.3902 7.32271 20.1951C6.335 19.2704 5.39028 19.3296 4.51284 20.3735C4.24185 20.6972 3.93348 20.9949 3.60923 21.2668C3.3046 21.5229 2.99436 21.3768 2.87475 20.9367C3.09341 20.92 3.33357 20.9607 3.51298 20.8756C3.82602 20.7258 4.05122 20.5067 4.17924 20.1202C4.48293 19.2075 5.85844 18.6999 6.72187 19.177C7.19283 19.4378 7.5881 19.8382 8.00299 20.1914C8.0927 20.2681 8.1198 20.4161 8.17586 20.5307C8.13942 20.5705 8.10298 20.6112 8.06747 20.6519ZM7.40495 14.1579C7.09938 14.2994 6.77513 14.0285 6.72654 13.6225C6.71159 13.5023 6.7228 13.3784 6.72373 13.2554C6.73588 12.1708 8.07868 10.6849 9.18506 10.6765C9.47755 10.7588 9.90646 10.8421 10.2989 11.0094C10.4363 11.0677 10.5765 11.3441 10.5568 11.5023C10.483 12.1107 10.2475 12.7016 9.71209 13.0215C8.97949 13.4598 8.18334 13.7991 7.40495 14.1579ZM10.7484 21.7226C10.6157 21.6135 10.4895 21.5617 10.4662 21.4822C10.3111 20.9422 9.88216 20.9884 9.46073 20.9875C9.18506 20.9875 8.90753 20.9727 8.63561 20.932C8.5702 20.9219 8.52441 20.7813 8.47021 20.7018C8.54684 20.6685 8.62346 20.6103 8.70196 20.6066C9.06919 20.5899 9.43736 20.5853 9.80554 20.5825C10.5008 20.5751 10.8587 20.9736 10.7484 21.7226ZM35.0533 13.5338C34.6366 13.5689 33.8441 12.6452 33.7535 12.0182C34.0936 11.9507 34.8842 12.8708 35.0533 13.5338ZM33.162 10.4565C33.2695 10.5979 33.376 10.6923 33.4115 10.8069C33.4283 10.8578 33.304 10.953 33.2433 11.027C33.1442 10.9262 33.0284 10.8337 32.9583 10.7163C32.9405 10.6867 33.0686 10.5721 33.162 10.4565ZM25.1734 20.5862C25.1389 20.6962 25.008 20.8201 24.895 20.8562C24.1782 21.0883 23.4587 21.3148 22.7299 21.5081C21.8814 21.7319 21.2123 21.4156 20.8292 20.6528C20.6161 20.2284 20.3732 19.815 20.2068 19.374C20.1265 19.1613 20.1125 18.8608 20.2031 18.6601C20.5068 17.9934 21.146 17.7392 21.8019 17.5431C22.1533 17.4377 22.5159 17.3684 22.8728 17.2824C24.5903 17.2925 25.6621 19.0272 25.1734 20.5862ZM22.0384 10.9077C23.0831 11.1472 23.7951 11.8314 24.1455 12.8449C24.3278 13.3719 23.9829 13.7677 23.6961 14.132C23.17 14.7996 22.4009 14.9688 21.4534 15.0151C20.6544 14.9467 19.8499 14.5925 19.2098 13.9184C18.879 13.5698 18.9603 12.4611 19.2257 11.9221C19.734 10.8892 21.2011 10.7163 22.0384 10.9077ZM11.3782 19.4775C11.5642 18.3809 12.1716 17.3998 13.5732 17.5792C14.2292 17.6633 14.6749 18.2144 15.0029 18.7757C15.5496 19.7124 14.9553 20.6556 13.7489 20.7933C13.5956 20.8109 13.4387 20.7952 13.3919 20.7952C12.5061 20.8969 11.9445 20.5409 11.5174 19.9426C11.4268 19.815 11.353 19.6227 11.3782 19.4775ZM15.5692 25.5434C15.4888 25.5618 15.3365 25.5128 15.3019 25.4481C15.0898 25.0459 14.7497 24.8526 14.3152 24.7824C13.8676 24.7112 13.6358 24.3773 13.4452 24.0278C13.2256 23.6237 12.9331 23.3584 12.465 23.2705C12.0575 23.1938 11.6847 23.0273 11.5361 22.5983C11.4988 22.4901 11.5501 22.3514 11.5604 22.2275C11.6613 22.2682 11.7669 22.3024 11.8641 22.3523C12.1977 22.5271 12.5472 22.6806 12.8537 22.8933C13.2247 23.1503 13.6564 23.399 13.8825 23.7606C14.1217 24.1443 14.3993 24.3357 14.803 24.4412C15.2384 24.5549 15.7374 25.0274 15.7449 25.3732C15.7075 25.4121 15.6496 25.5249 15.5692 25.5434ZM16.7503 12.7968C16.3513 13.2739 15.9103 13.7353 15.4141 14.108C15.0777 14.3595 14.6142 14.4455 14.2077 14.6055C13.4854 14.5315 12.5388 14.0562 12.3781 13.4885C12.2323 12.9716 12.2706 12.3973 12.6341 11.9489C13.391 11.015 15.1721 10.6238 16.1785 11.4792C16.284 11.5688 16.3934 11.6576 16.5111 11.7297C17.0718 12.0746 17.1568 12.3114 16.7503 12.7968ZM16.954 7.98668C16.0869 7.4476 16.3878 6.48687 17.0017 5.88398C17.8324 5.0675 18.8968 5.0675 19.9265 4.96949C21.0759 4.85945 21.9795 6.21502 21.4786 7.24232C21.3646 7.47719 21.2375 7.70928 21.0908 7.92565C20.6881 8.51929 20.5012 8.59604 19.1528 8.66816C18.5762 8.61638 17.7007 8.45086 16.954 7.98668ZM20.589 32.0789C20.1611 32.1917 19.7275 32.287 19.2939 32.3813C18.908 32.4645 18.5734 32.5939 18.337 32.9527C18.2221 33.1266 17.9651 33.2089 17.6857 33.3882C18.0315 32.0983 19.976 31.2116 20.8647 31.8755C20.7647 31.9522 20.6872 32.053 20.589 32.0789ZM23.8213 30.8704C23.198 31.157 22.5588 31.4104 21.9318 31.6896C21.6777 31.8034 21.4403 31.9485 21.0572 31.5805C21.6038 31.3475 22.0589 31.1589 22.5093 30.9591C22.77 30.8426 23.0205 30.7039 23.2802 30.5828C23.4036 30.5255 23.5335 30.4561 23.6643 30.4496C23.7802 30.4441 23.8998 30.5181 24.0175 30.5569C23.954 30.6642 23.9157 30.8278 23.8213 30.8704ZM23.9035 28.1296C23.6503 28.2683 23.3728 28.3812 23.155 28.5633C22.2131 29.3558 20.4461 28.7788 19.9452 28.0557C19.7013 27.7034 19.4855 27.2503 19.8116 26.7861C19.9078 26.6502 19.9751 26.4911 20.0386 26.3358C20.3807 25.5017 21.3422 25.1448 22.0954 25.1457C23.498 24.9867 24.0091 25.9197 24.5146 26.8018C24.7754 27.2577 24.467 27.8217 23.9035 28.1296ZM24.7595 30.5569C24.7268 30.5708 24.6286 30.433 24.5604 30.3655C24.7034 30.2518 24.837 30.1232 24.994 30.0345C25.0314 30.0132 25.1454 30.1232 25.3164 30.2323C25.079 30.3775 24.9277 30.4866 24.7595 30.5569ZM27.3965 10.388C28.6552 10.5295 29.7522 10.9456 30.3091 12.1939C30.4185 12.4408 30.4792 12.708 30.5624 12.966C30.5203 13.8879 29.9942 14.3105 29.0869 14.2282C28.6056 14.1847 28.0824 14.1995 27.6291 14.3447C27.09 14.5176 26.7601 14.3281 26.4555 13.9693C25.9238 13.3442 25.735 12.5841 25.7248 11.7972C25.7135 11.0298 26.6106 10.3002 27.3965 10.388ZM29.6943 28.2665C29.0785 28.6623 28.4561 29.0506 27.8188 29.4094C27.4591 29.6128 27.0694 29.7645 26.6863 29.9235C26.5153 29.9956 26.3284 30.0298 26.1481 30.0816C26.1125 30.0215 26.0761 29.9623 26.0406 29.9022C26.1808 29.7626 26.2976 29.5805 26.4648 29.4889C27.4338 28.9582 28.4122 28.4422 29.3971 27.9392C29.5139 27.8791 29.6887 27.929 29.8363 27.929C29.7915 28.0437 29.7793 28.2119 29.6943 28.2665ZM30.8296 27.4815C30.7708 27.5369 30.6222 27.5 30.5157 27.5064C30.5175 27.4112 30.4811 27.2864 30.5287 27.2244C30.7324 26.9581 30.9427 26.6909 31.1885 26.4643C31.2959 26.3645 31.4931 26.3608 31.6491 26.3136C31.6902 26.3811 31.7323 26.4477 31.7734 26.5152C31.4604 26.8397 31.1557 27.1717 30.8296 27.4815ZM31.6043 19.3351C31.1286 19.4045 30.5698 19.3509 30.3204 18.8404C30.0587 18.306 30.1671 17.7142 30.6072 17.2648C30.9558 16.9097 31.3109 16.5241 31.7407 16.2948C32.3948 15.9462 32.7555 16.0729 33.2536 16.6129C33.4106 16.783 33.576 16.9449 33.7255 17.1206C34.0039 17.446 34.0535 17.7946 33.8339 18.1793C33.2984 19.1169 33.0059 19.2769 31.6043 19.3351ZM35.9551 20.9209C35.556 22.0426 35.1767 23.2659 34.0385 23.9844C33.9077 24.0667 33.9002 24.3209 33.7834 24.4495C33.418 24.8526 33.0359 25.2419 32.6387 25.6155C32.5686 25.6811 32.3967 25.6404 32.2715 25.6488C32.2939 25.5267 32.2743 25.3649 32.3472 25.2909C32.9667 24.6566 33.604 24.0389 34.2338 23.4148C34.2974 23.351 34.3656 23.2798 34.3983 23.1993C34.8291 22.1082 35.386 21.0448 35.6439 19.914C35.9074 18.7563 36.1662 17.5422 35.8794 16.3346C35.7756 15.8954 35.5346 15.4904 35.3766 15.0613C35.3206 14.9097 35.3243 14.7349 35.3009 14.5712C35.4561 14.6637 35.671 14.7192 35.756 14.8551C36.2662 15.6679 36.554 16.5491 36.5578 17.533C36.3709 18.6675 36.3344 19.8539 35.9551 20.9209Z" fill="#FFC6FF"/>
<path d="M24.4128 20.4346C23.6419 20.6047 22.9186 21.0171 22.0786 20.8784C21.8169 20.8349 21.6319 20.7961 21.4861 20.5437C21.274 20.1775 20.9853 19.8548 20.7563 19.4969C20.4984 19.0919 20.5358 18.6758 20.9451 18.4382C21.6207 18.0471 22.3477 17.7715 23.1691 17.8196C24.0091 17.8695 24.8651 18.7859 24.8174 19.7022C24.9015 20.0397 24.766 20.3569 24.4128 20.4346Z" fill="#A894EB"/>
<path d="M23.3215 13.6262C22.9084 14.2846 22.3029 14.414 21.6451 14.5222C21.076 14.6165 19.7276 13.9831 19.4771 13.4302C19.1594 12.7293 19.5659 11.432 20.7396 11.2951C20.9246 11.2739 21.1115 11.2711 21.3292 11.2572C22.2898 11.247 22.9991 11.6262 23.4812 12.5434C23.7401 13.0363 23.5663 13.236 23.3215 13.6262Z" fill="#A894EB"/>
<path d="M23.383 27.8032C23.1205 27.905 22.8626 28.0316 22.6252 28.1824C22.1524 28.4847 20.9834 28.2998 20.633 27.8541C20.5573 27.7579 20.4451 27.6895 20.3779 27.5906C20.2134 27.3474 20.091 27.1292 20.2555 26.7917C20.6974 25.8855 21.2488 25.5138 22.2879 25.5314C23.2018 25.5461 23.7989 25.9992 24.0708 26.8823C24.1932 27.2827 23.9568 27.5822 23.383 27.8032Z" fill="#A894EB"/>
<path d="M21.0759 6.88357C20.8647 7.27008 20.5816 7.62053 20.3106 7.97098C20.2471 8.05235 20.0947 8.12725 19.9985 8.11153C19.1556 7.97468 18.3043 7.8591 17.483 7.63995C17.2269 7.57152 16.8728 7.19796 16.8831 6.97881C16.898 6.66442 17.1503 6.30658 17.3989 6.06801C18.0745 5.41797 18.9641 5.32643 20.0704 5.27557C20.3134 5.4189 20.7573 5.60845 21.1049 5.9062C21.4254 6.18082 21.2394 6.58398 21.0759 6.88357Z" fill="#A894EB"/>
<path d="M16.5336 12.1921C15.744 12.8422 15.1693 13.6827 14.1199 13.8824C13.7742 13.9481 13.0472 13.6836 12.8538 13.3831C12.6463 13.0613 12.7323 12.4649 13.0425 12.1524C13.9461 11.2443 15.1198 11.0871 16.1813 11.9443C16.2757 12.0201 16.3794 12.0839 16.5336 12.1921Z" fill="#A894EB"/>
<path d="M29.3579 13.7677C28.7589 13.7751 28.1487 13.8019 27.5666 13.9259C27.119 14.0211 26.8256 13.9295 26.6546 13.544C26.4097 12.9929 26.2088 12.4242 25.9892 11.862C26.0303 11.8472 26.0715 11.8315 26.1126 11.8158C26.0845 11.3978 26.7592 10.7367 27.2246 10.7755C28.3637 10.8707 29.3794 11.2008 29.8859 12.3474C29.9896 12.5823 30.0756 12.8384 30.1017 13.0918C30.1447 13.4996 29.7728 13.7622 29.3579 13.7677Z" fill="#A894EB"/>
<path d="M10.0439 11.4616C9.89155 12.1089 9.61963 12.6165 8.93374 12.9235C8.40298 13.1611 7.9507 13.5662 7.31622 13.5097C7.11811 13.0946 7.57786 11.948 8.13479 11.4598C8.58519 11.064 9.46544 11.0621 10.0439 11.4616Z" fill="#A894EB"/>
<path d="M14.8433 19.3777C14.4256 20.1211 13.7789 20.3689 12.9435 20.3079C12.4034 20.2681 12.1763 19.8307 11.8128 19.5672C11.7773 19.5422 11.7988 19.4257 11.8119 19.3545C11.9203 18.7295 12.4669 18.1303 12.9977 18.0036C13.6201 17.8557 14.0013 18.2292 14.5199 18.8349C14.6564 18.993 14.7377 19.1973 14.8433 19.3777Z" fill="#A894EB"/>
<path d="M32.8163 18.6102C32.6471 18.686 32.4724 18.7646 32.292 18.797C32.1126 18.8294 31.9229 18.8044 31.7379 18.8044C31.7379 18.8118 31.7379 18.8192 31.737 18.8266C31.5361 18.8146 31.3258 18.834 31.1343 18.785C30.7951 18.6971 30.6455 18.2616 30.7633 17.9121C30.9548 17.3471 31.4062 17.0244 31.8557 16.698C31.9388 16.6379 32.0584 16.6175 32.165 16.6009C32.578 16.5334 33.3554 17.0937 33.4816 17.5422C33.5657 17.8418 33.2003 18.4391 32.8163 18.6102Z" fill="#A894EB"/>
<path d="M23.2448 20.183C23.5298 20.0221 23.8083 19.8492 24.0606 19.6467C24.1708 19.558 24.254 19.484 24.3129 19.4156C24.3138 19.3943 24.3138 19.373 24.3138 19.3499C24.3129 19.1012 24.2905 18.8515 24.2914 18.6028C24.1727 18.4465 24.0213 18.2856 23.9213 18.0868C23.6868 17.9333 23.427 17.8353 23.1691 17.8196C22.3477 17.7715 21.6207 18.0471 20.9451 18.4382C20.5695 18.6564 20.5078 19.0254 20.6994 19.3971C21.3881 20.1026 22.3076 20.3153 23.2448 20.183Z" fill="#E7B3FF"/>
<path d="M20.6293 13.801C21.0395 13.8509 21.8039 13.7686 22.1244 13.616C22.7719 13.3081 23.0588 12.1366 22.5047 11.5365C22.4972 11.5281 22.4981 11.5152 22.4935 11.505C22.1561 11.3312 21.7693 11.2526 21.3282 11.2572C21.1105 11.2711 20.9236 11.2739 20.7386 11.2951C19.6004 11.4283 19.1837 12.6525 19.45 13.3655C19.7163 13.5301 20.2854 13.7594 20.6293 13.801Z" fill="#E7B3FF"/>
<path d="M21.4235 27.8486C21.7076 27.8255 21.973 27.7644 22.1646 27.6526C22.3515 27.5434 22.6196 27.3779 22.6841 27.2087C22.7355 27.0765 23.0635 26.739 23.0579 26.5614C23.0457 26.1944 23.0579 26.0066 22.4972 25.6368C22.4776 25.6238 22.1851 25.5526 22.1748 25.5323C21.2086 25.5434 20.6797 25.9188 20.2546 26.7917C20.2144 26.8749 20.191 26.9507 20.1817 27.0219C20.5545 27.3761 20.9731 27.6516 21.4235 27.8486Z" fill="#E7B3FF"/>
<path d="M20.7741 6.04394C20.7919 6.22147 20.7199 5.87195 20.7059 5.83126C20.6863 5.77486 20.6657 5.71938 20.6433 5.6639C20.6087 5.65835 20.5741 5.65188 20.5386 5.64725C20.3097 5.61581 20.1275 5.46972 20.0069 5.27924C18.9295 5.33102 18.0605 5.43088 17.398 6.0689C17.354 6.11051 17.3101 6.15675 17.2681 6.20483C17.2933 6.40178 17.2578 6.60336 17.1401 6.77165C17.1195 6.80124 17.1017 6.82528 17.0868 6.8484C17.1858 7.01854 17.2699 7.19792 17.3438 7.38193C17.3671 7.39765 17.3905 7.41152 17.4138 7.42447C17.4372 7.43464 17.4652 7.44666 17.4886 7.45405C17.5792 7.48087 17.6708 7.50399 17.7624 7.5271C17.9054 7.56317 17.9147 7.56132 18.1502 7.57056C18.3567 7.57888 18.5632 7.57334 18.7688 7.55577C18.9912 7.53727 18.9146 7.54837 19.1603 7.49844C19.3257 7.46515 19.4911 7.42539 19.6518 7.37361C19.7144 7.35419 19.778 7.33292 19.8397 7.30888C19.8518 7.30148 19.8658 7.29224 19.8826 7.28022C19.8948 7.2719 19.9714 7.22196 20.0107 7.19792C20.0443 7.17018 20.0901 7.13412 20.0985 7.1258C20.2162 7.01576 20.3293 6.90018 20.4321 6.77535C20.4489 6.75038 20.519 6.65607 20.5302 6.63942C20.5723 6.57562 20.6134 6.51089 20.6526 6.44524C20.6984 6.36665 20.7414 6.2862 20.7825 6.20483C20.7909 6.18911 20.7947 6.18264 20.7965 6.17986C20.7872 6.1364 20.7788 6.09017 20.7741 6.04394Z" fill="#E7B3FF"/>
<path d="M12.8248 12.8597C12.8669 12.9605 12.979 13.0382 13.1276 13.1158C13.2733 13.1926 13.4565 13.2416 13.6639 13.2823C13.9714 13.3424 14.3984 13.3831 14.7395 13.2037C15.0815 13.0243 15.5955 12.7663 15.6627 12.4316C15.6945 12.2707 15.6889 12.0867 15.6852 11.9193C15.6842 11.8842 15.6917 11.7335 15.6852 11.6872C15.6824 11.6845 15.6786 11.6817 15.6758 11.6789C15.6749 11.6817 15.673 11.6863 15.6711 11.6919C15.673 11.6872 15.673 11.6826 15.6739 11.678C15.6366 11.6438 15.6039 11.6077 15.574 11.5698C14.6881 11.175 13.7761 11.4145 13.0425 12.1523C12.8958 12.3003 12.8005 12.513 12.7622 12.7284C12.7846 12.7709 12.8061 12.8144 12.8248 12.8597Z" fill="#E7B3FF"/>
<path d="M29.1337 12.352C29.1327 12.0857 29.1047 11.8203 29.0804 11.5549C28.9832 11.4541 28.9113 11.3358 28.8664 11.21C28.3908 10.9428 27.8254 10.8263 27.2246 10.7754C26.7592 10.7366 26.0846 11.3977 26.1126 11.8157C26.1023 11.8194 26.092 11.8231 26.0818 11.8268C26.0827 11.837 26.0846 11.8471 26.0855 11.8573C26.093 11.9128 26.1004 11.9683 26.1079 12.0237C26.1079 12.0663 26.1051 12.1088 26.0995 12.1495C26.1574 12.3011 26.2154 12.4519 26.2733 12.6035C26.4882 12.8707 26.7667 13.1352 27.0732 13.359C27.148 13.3701 27.2218 13.3812 27.2965 13.3923C27.6273 13.445 27.945 13.5097 28.2824 13.5097C28.5693 13.5097 28.8047 13.4024 28.9991 13.2378C29.0823 12.9503 29.1346 12.6599 29.1337 12.352Z" fill="#E7B3FF"/>
<path d="M7.9993 12.9217C8.08994 12.8837 8.30954 12.7756 8.46185 12.6886C8.55343 12.6359 8.6422 12.5805 8.73004 12.5222C8.83189 12.4538 8.83002 12.4501 8.86273 12.4223C9.25706 12.083 9.47199 11.7011 9.56543 11.2388C9.05242 11.089 8.47213 11.1639 8.13479 11.4607C7.6928 11.8481 7.31342 12.6489 7.27417 13.1713C7.52086 13.1001 7.76382 13.0197 7.9993 12.9217Z" fill="#E7B3FF"/>
<path d="M12.0324 19.4008C12.0829 19.5598 12.0661 19.5718 12.2193 19.6541C12.5566 19.8344 13.0893 19.7974 13.4584 19.7937C13.8172 19.7891 14.1218 19.7605 14.2919 19.57C14.518 19.3166 14.5199 19.029 14.4237 18.7248C13.9527 18.1857 13.5808 17.8658 12.9977 18.0045C12.5622 18.109 12.1156 18.5316 11.91 19.0253C11.9521 19.1474 11.9913 19.2722 12.0324 19.4008Z" fill="#E7B3FF"/>
<path d="M31.9099 18.3272C31.9688 18.3346 32.0258 18.3448 32.0809 18.3568C32.1781 18.2884 32.2734 18.2181 32.378 18.1608C32.3855 18.1192 32.3949 18.0785 32.4108 18.0378C32.5014 17.7946 32.6182 17.4959 32.5771 17.2287C32.5481 17.0428 32.5575 16.8579 32.6061 16.6896C32.4453 16.6175 32.2893 16.5814 32.1659 16.6008C32.0594 16.6175 31.9398 16.6378 31.8566 16.6979C31.4072 17.0243 30.9558 17.3471 30.7643 17.912C30.6914 18.1275 30.7213 18.3744 30.8325 18.5538C31.1558 18.3799 31.5081 18.2791 31.9099 18.3272Z" fill="#E7B3FF"/>
<path d="M35.8794 16.3346C35.7756 15.8954 35.5346 15.4904 35.3766 15.0613C35.3206 14.9097 35.3243 14.7349 35.3009 14.5712C35.3757 14.6156 35.4654 14.6526 35.5467 14.6933C35.5084 14.6156 35.4691 14.5389 35.4271 14.4631C35.2355 14.1154 35.0187 13.788 34.7982 13.4663C34.374 13.2453 33.8283 12.5323 33.7535 12.0182C33.7815 12.0127 33.8124 12.0145 33.846 12.0219C33.6479 11.6743 33.4778 11.3081 33.3545 10.9105C33.3181 10.9493 33.2732 10.9909 33.2433 11.027C33.1442 10.9262 33.0284 10.8337 32.9583 10.7163C32.9405 10.6867 33.0686 10.5721 33.162 10.4565C33.2003 10.5073 33.2386 10.5517 33.2741 10.5933C33.2283 10.291 33.2825 9.99783 33.4134 9.74262C33.3956 9.69269 33.3779 9.64276 33.3638 9.59005C33.2517 9.19152 32.9723 8.78374 32.6555 8.50727C31.7678 7.73055 30.6988 7.25342 29.5915 6.84934C29.2672 6.73191 28.9869 6.48779 28.6982 6.28529C28.1637 5.90988 27.6721 5.45586 27.0984 5.15442C26.0714 4.61626 24.9735 4.20479 23.7989 4.17057C23.1186 4.15023 22.4336 4.32592 21.7487 4.39157C21.2759 4.43688 20.7993 4.46832 20.3246 4.46277C19.5518 4.45352 18.7547 4.27691 18.0118 4.41006C16.7438 4.63753 15.4776 4.69116 14.204 4.68561C12.8518 4.67914 11.6455 5.00555 10.6036 5.89785C9.96533 6.44526 9.30561 6.97879 8.60664 7.44575C7.3984 8.25206 6.6088 9.34779 6.16213 10.6923C6.05747 11.0057 5.87806 11.101 5.60614 11.2165C5.20433 11.3885 4.73243 11.5624 4.482 11.8814C3.91666 12.6017 3.42047 13.3904 3.40271 14.3623C3.40085 14.4224 3.39337 14.4889 3.36534 14.5417C2.85513 15.5144 2.77477 16.6425 2.1842 17.6051C1.94405 17.9953 1.99544 18.6009 2.02721 19.1012C2.05898 19.5959 2.244 20.0795 2.34305 20.5723C2.42902 21.0051 2.42809 21.4637 2.57199 21.8733C2.85139 22.6649 4.23904 22.9663 5.03613 22.7213C5.73789 22.5058 6.39668 22.5299 7.06481 22.8313C7.57408 23.0606 8.09924 23.2548 8.68327 23.0902C8.78886 23.0606 8.92529 23.0976 9.03742 23.1337C9.71583 23.3537 10.2858 23.7282 10.7447 24.2793C10.8699 24.4291 11.0726 24.5225 11.253 24.6178C11.7408 24.8748 12.3734 25.0061 12.6958 25.3936C13.1873 25.9835 14.0096 26.3136 14.1909 27.156C14.1984 27.192 14.2554 27.2207 14.2946 27.2447C14.8413 27.5721 15.0945 28.0511 14.9964 28.6761C14.93 29.1033 15.1674 29.4075 15.4701 29.5499C15.9888 29.7913 16.0551 30.2259 16.1243 30.6725C16.2158 31.2587 16.2691 31.8524 16.3382 32.4423C16.4644 32.2879 16.5102 32.1316 16.5205 31.9726C16.5438 31.5666 16.5597 31.1598 16.5616 30.7539C16.5625 30.5717 16.5784 30.3581 16.4924 30.2148C16.1355 29.6193 16.3364 29.1033 16.6382 28.5698C16.7382 28.3941 16.8288 28.1278 16.7653 27.9623C16.5709 27.4528 16.2981 26.9738 16.0607 26.481C15.9897 26.3339 15.9364 26.1777 15.8757 26.026C15.928 26.002 15.9804 25.977 16.0327 25.953C16.5821 26.2831 16.8765 26.8018 17.0867 27.389C17.2334 27.7958 17.4353 28.2258 17.1811 28.6243C16.8382 29.1616 16.6298 29.6775 16.9727 30.2814C16.9802 30.2943 16.9793 30.3119 16.9793 30.3276C16.9746 30.9915 17.0437 31.6684 16.9372 32.3165C16.8812 32.655 16.6971 33.0322 16.4541 33.2985C16.6195 33.2329 16.7961 33.1959 16.9746 33.1959C17.2381 33.1959 17.4792 33.2653 17.6876 33.3836C18.0268 32.1335 19.8648 31.2643 20.7843 31.8209C20.9245 31.7636 21.0665 31.7238 21.2067 31.7026C21.159 31.6702 21.1095 31.6304 21.0572 31.5796C21.6038 31.3466 22.0589 31.1579 22.5093 30.9582C22.77 30.8417 23.0205 30.703 23.2802 30.5819C23.4036 30.5245 23.5335 30.4552 23.6643 30.4487C23.7802 30.4432 23.8998 30.5171 24.0175 30.556C24.0007 30.5846 23.9857 30.617 23.9708 30.6503C24.0465 30.6207 24.1231 30.5911 24.1988 30.5625C24.3567 30.5023 24.5165 30.4811 24.6726 30.4903C24.6352 30.4496 24.5941 30.3988 24.5604 30.3646C24.7034 30.2508 24.837 30.1223 24.994 30.0335C25.0314 30.0123 25.1454 30.1223 25.3164 30.2314C25.122 30.3507 24.9847 30.445 24.8492 30.5144C24.8819 30.5218 24.9146 30.531 24.9464 30.5403C25.0566 30.4681 25.1762 30.4099 25.3005 30.3683C25.5192 30.1685 25.7958 30.0289 26.0892 29.9818C26.0733 29.9549 26.0574 29.9281 26.0415 29.9013C26.1817 29.7617 26.2985 29.5795 26.4658 29.488C27.4348 28.9572 28.4131 28.4413 29.3981 27.9382C29.5149 27.8781 29.6896 27.9281 29.8372 27.9281C29.8092 27.9993 29.7943 28.0908 29.7662 28.1629C29.8111 28.1407 29.8559 28.1167 29.9008 28.0917C29.9335 28.0723 29.9671 28.0538 29.9998 28.0344C30.0054 28.0307 30.0092 28.0279 30.0139 28.0252C30.0204 28.0187 30.0251 28.0141 30.0297 28.0113C30.2437 27.7607 30.511 27.5887 30.8025 27.5074C30.8035 27.5037 30.8044 27.5009 30.8053 27.4972C30.7362 27.5277 30.611 27.5 30.5175 27.5055C30.5194 27.4103 30.4829 27.2854 30.5306 27.2235C30.7343 26.9572 30.9446 26.6899 31.1903 26.4634C31.2782 26.3811 31.4267 26.3645 31.5641 26.3349C31.7697 26.0935 31.9837 25.8596 32.192 25.6201C32.2219 25.5859 32.2537 25.5545 32.2864 25.5249C32.293 25.4324 32.2995 25.3409 32.349 25.29C32.9686 24.6557 33.6059 24.038 34.2357 23.4138C34.2992 23.35 34.3674 23.2788 34.4001 23.1984C34.8309 22.1073 35.3878 21.0439 35.6458 19.9131C35.9074 18.7563 36.1662 17.5422 35.8794 16.3346ZM8.06747 20.6519C7.81704 20.5021 7.53109 20.3902 7.32271 20.1951C6.335 19.2704 5.39028 19.3296 4.51284 20.3735C4.24185 20.6972 3.93348 20.9949 3.60923 21.2668C3.3046 21.5229 2.99436 21.3768 2.87475 20.9367C3.09341 20.92 3.33357 20.9607 3.51298 20.8756C3.82602 20.7258 4.05122 20.5067 4.17924 20.1202C4.48293 19.2075 5.85844 18.6999 6.72187 19.177C7.19283 19.4378 7.5881 19.8382 8.00299 20.1914C8.0927 20.2681 8.1198 20.4161 8.17586 20.5307C8.13942 20.5705 8.10298 20.6112 8.06747 20.6519ZM7.40494 14.1579C7.09938 14.2994 6.77513 14.0285 6.72654 13.6225C6.71159 13.5023 6.7228 13.3784 6.72373 13.2554C6.73588 12.1708 8.07868 10.6849 9.18506 10.6765C9.47754 10.7588 9.90645 10.8421 10.2989 11.0094C10.4363 11.0677 10.5765 11.3441 10.5568 11.5023C10.483 12.1107 10.2475 12.7016 9.71209 13.0215C8.97949 13.4598 8.18334 13.7991 7.40494 14.1579ZM10.7484 21.7226C10.6157 21.6135 10.4895 21.5617 10.4662 21.4822C10.3111 20.9422 9.88216 20.9884 9.46072 20.9875C9.18506 20.9875 8.90753 20.9727 8.63561 20.932C8.5702 20.9219 8.52441 20.7813 8.47021 20.7018C8.54684 20.6685 8.62346 20.6103 8.70195 20.6066C9.06919 20.5899 9.43736 20.5853 9.80553 20.5825C10.5008 20.5751 10.8587 20.9736 10.7484 21.7226ZM11.3782 19.4775C11.5642 18.3809 12.1716 17.3998 13.5732 17.5792C14.2292 17.6633 14.6749 18.2144 15.0029 18.7757C15.5496 19.7124 14.9553 20.6556 13.7489 20.7933C13.5956 20.8109 13.4387 20.7952 13.3919 20.7952C12.5061 20.8969 11.9445 20.5409 11.5174 19.9426C11.4268 19.815 11.353 19.6227 11.3782 19.4775ZM15.5692 25.5434C15.4888 25.5618 15.3365 25.5128 15.3019 25.4481C15.0898 25.0459 14.7497 24.8526 14.3152 24.7824C13.8676 24.7112 13.6358 24.3773 13.4452 24.0278C13.2256 23.6237 12.9331 23.3584 12.465 23.2705C12.0575 23.1938 11.6847 23.0273 11.5361 22.5983C11.4988 22.4901 11.5501 22.3514 11.5604 22.2275C11.6613 22.2682 11.7669 22.3024 11.8641 22.3523C12.1977 22.5271 12.5472 22.6806 12.8537 22.8933C13.2247 23.1503 13.6564 23.3991 13.8825 23.7606C14.1217 24.1443 14.3993 24.3357 14.8029 24.4412C15.2384 24.5549 15.7374 25.0274 15.7449 25.3732C15.7075 25.4121 15.6496 25.5249 15.5692 25.5434ZM16.7503 12.7968C16.3513 13.2739 15.9103 13.7353 15.4141 14.108C15.0777 14.3595 14.6142 14.4455 14.2077 14.6055C13.4854 14.5315 12.5388 14.0562 12.3781 13.4885C12.2323 12.9716 12.2706 12.3973 12.6341 11.9489C13.391 11.015 15.1721 10.6238 16.1785 11.4792C16.284 11.5688 16.3934 11.6576 16.5111 11.7297C17.0718 12.0746 17.1568 12.3114 16.7503 12.7968ZM16.954 7.98668C16.0869 7.4476 16.3878 6.48687 17.0017 5.88398C17.8324 5.0675 18.8968 5.0675 19.9265 4.96949C21.0759 4.85945 21.9795 6.21502 21.4786 7.24232C21.3646 7.47719 21.2375 7.70928 21.0908 7.92565C20.6881 8.51929 20.5012 8.59604 19.1528 8.66816C18.5762 8.61638 17.7007 8.45086 16.954 7.98668ZM19.2098 13.9184C18.879 13.5698 18.9603 12.4611 19.2257 11.9221C19.734 10.8892 21.2011 10.7163 22.0384 10.9077C23.0831 11.1472 23.7951 11.8315 24.1455 12.8449C24.3278 13.3719 23.9829 13.7677 23.6961 14.132C23.17 14.7996 22.4009 14.9688 21.4534 15.0151C20.6544 14.9467 19.8499 14.5925 19.2098 13.9184ZM23.9035 28.1297C23.6503 28.2684 23.3727 28.3812 23.155 28.5633C22.2131 29.3558 20.4461 28.7788 19.9452 28.0557C19.7013 27.7034 19.4855 27.2503 19.8116 26.7861C19.9078 26.6502 19.9751 26.4911 20.0386 26.3358C20.3807 25.5017 21.3422 25.1448 22.0954 25.1457C23.498 24.9867 24.0091 25.9197 24.5146 26.8018C24.7754 27.2577 24.467 27.8217 23.9035 28.1297ZM25.1734 20.5862C25.1389 20.6962 25.008 20.8202 24.895 20.8562C24.1782 21.0883 23.4587 21.3148 22.7299 21.5081C21.8814 21.7319 21.2123 21.4156 20.8292 20.6528C20.6161 20.2284 20.3732 19.815 20.2068 19.374C20.1265 19.1613 20.1125 18.8608 20.2031 18.6601C20.5068 17.9934 21.146 17.7392 21.8019 17.5431C22.1533 17.4377 22.5159 17.3684 22.8728 17.2824C24.5903 17.2925 25.6621 19.0272 25.1734 20.5862ZM29.0869 14.2282C28.6056 14.1847 28.0824 14.1995 27.6291 14.3447C27.09 14.5176 26.7601 14.3281 26.4555 13.9693C25.9238 13.3442 25.735 12.5841 25.7247 11.7972C25.7135 11.0298 26.6106 10.3002 27.3965 10.388C28.6552 10.5295 29.7522 10.9456 30.3091 12.1939C30.4185 12.4408 30.4792 12.708 30.5624 12.966C30.5203 13.8879 29.9942 14.3105 29.0869 14.2282ZM33.8339 18.1793C33.2984 19.1169 33.0059 19.2769 31.6043 19.3351C31.1286 19.4045 30.5698 19.3509 30.3203 18.8404C30.0587 18.306 30.1671 17.7142 30.6072 17.2648C30.9558 16.9097 31.3109 16.5241 31.7407 16.2948C32.3948 15.9462 32.7555 16.0729 33.2536 16.6129C33.4106 16.783 33.576 16.9449 33.7255 17.1206C34.0039 17.446 34.0535 17.7946 33.8339 18.1793Z" fill="#FFD9FF"/>
<path d="M16.9728 30.2813C16.9803 30.2943 16.9793 30.3118 16.9793 30.3275C16.9774 30.6521 16.9924 30.9794 16.9961 31.3049C17.0429 30.58 17.0961 29.856 17.1073 29.1301C17.1092 29.0016 17.1092 28.8721 17.1083 28.7436C16.8102 29.2383 16.6551 29.7219 16.9728 30.2813Z" fill="#FFD9FF"/>
<path d="M16.9419 32.2823C16.94 32.2934 16.9391 32.3054 16.9372 32.3165C16.8811 32.6549 16.6971 33.0322 16.4541 33.2985C16.5774 33.2504 16.7064 33.2171 16.8372 33.2033C16.8363 33.0424 16.869 32.887 16.926 32.7418C16.9297 32.5884 16.9353 32.4349 16.9419 32.2823Z" fill="#FFD9FF"/>
<path d="M16.7653 27.9623C16.571 27.4528 16.2981 26.9738 16.0607 26.481C15.9897 26.334 15.9365 26.1777 15.8757 26.026C15.9196 26.0057 15.9645 25.9844 16.0084 25.9641C15.9066 25.8716 15.8187 25.7653 15.7458 25.6488C15.6842 25.6155 15.6234 25.5813 15.5636 25.5443C15.4823 25.5591 15.3366 25.5119 15.3029 25.4481C15.2749 25.3954 15.244 25.3464 15.2123 25.3002C15.0833 25.0052 14.9198 24.9738 14.7665 24.9192C14.631 24.8526 14.4806 24.8083 14.3161 24.7824C13.8685 24.7112 13.6368 24.3774 13.4462 24.0278C13.2266 23.6238 12.9341 23.3584 12.4659 23.2705C12.0585 23.1938 11.6857 23.0273 11.5371 22.5983C11.5156 22.5363 11.5231 22.4651 11.5362 22.3921C11.3259 22.2035 11.1409 21.9963 10.9839 21.7744C10.9017 21.693 10.8288 21.6024 10.7662 21.5035C10.7652 21.5728 10.7606 21.645 10.7494 21.7217C10.6167 21.6126 10.4905 21.5608 10.4672 21.4813C10.312 20.9413 9.88312 20.9875 9.46169 20.9866C9.18603 20.9866 8.9085 20.9718 8.63657 20.9311C8.57116 20.921 8.52537 20.7804 8.47118 20.7009H8.47211C8.35437 20.6704 8.24317 20.6278 8.14038 20.5714C8.11609 20.5982 8.09179 20.6251 8.06843 20.6519C7.818 20.5021 7.53206 20.3902 7.32368 20.1951C6.33597 19.2704 5.39124 19.3296 4.5138 20.3735C4.24281 20.6972 3.93444 20.9949 3.61019 21.2668C3.33359 21.4989 3.05326 21.3999 2.91403 21.0504C2.86731 21.055 2.82058 21.0578 2.77199 21.0569C2.65238 21.056 2.53184 21.0476 2.41223 21.0365C2.44681 21.3223 2.47951 21.6089 2.57296 21.8734C2.85236 22.6649 4.24001 22.9663 5.03709 22.7213C5.73886 22.5058 6.39764 22.5299 7.06577 22.8313C7.57504 23.0606 8.1002 23.2548 8.68423 23.0902C8.78982 23.0606 8.92625 23.0976 9.03839 23.1337C9.71679 23.3538 10.2868 23.7282 10.7456 24.2793C10.8708 24.4291 11.0736 24.5225 11.254 24.6178C11.7417 24.8748 12.3744 25.0061 12.6967 25.3936C13.1883 25.9835 14.0106 26.3136 14.1919 27.156C14.1993 27.192 14.2563 27.2207 14.2956 27.2448C14.8422 27.5721 15.0955 28.0511 14.9973 28.6761C14.931 29.1033 15.1683 29.4076 15.4711 29.55C15.9897 29.7913 16.0561 30.2259 16.1252 30.6725C16.2168 31.2587 16.2701 31.8524 16.3392 32.4423C16.4654 32.2879 16.5111 32.1316 16.5214 31.9726C16.5448 31.5667 16.5607 31.1598 16.5625 30.7539C16.5635 30.5717 16.5794 30.3581 16.4934 30.2148C16.1364 29.6193 16.3373 29.1033 16.6392 28.5698C16.7382 28.3941 16.8289 28.1278 16.7653 27.9623Z" fill="#C6A0FE"/>
<path d="M10.5036 20.7933C10.4868 20.7378 10.4728 20.6814 10.4588 20.625C10.3644 20.625 10.271 20.6259 10.1766 20.6259C10.3055 20.6611 10.4149 20.7165 10.5036 20.7933Z" fill="#FFD9FF"/>
<path d="M39.1318 19.7744C38.8767 18.8645 38.6206 17.9546 38.7393 16.9893C38.7804 16.6592 38.8477 16.3004 38.7617 15.9934C38.6318 15.5283 38.4449 15.0512 38.1627 14.6637C37.7366 14.0766 37.4348 13.4608 37.1965 12.7774C36.8928 11.9082 36.4284 11.1084 35.6379 10.5434C35.1155 10.1699 34.6062 9.78427 34.3194 9.16937C34.0998 8.69963 33.883 8.18182 33.5195 7.83414C32.7598 7.10551 31.8384 6.59879 30.8143 6.28255C30.1648 6.08282 29.5789 5.78878 29.0734 5.28668C28.5912 4.80863 28.0119 4.39345 27.4082 4.07537C26.8036 3.75543 26.1084 3.60841 25.4664 3.3532C24.36 2.91306 23.2499 2.91953 22.1006 3.17937C21.4932 3.31714 20.8549 3.34118 20.2289 3.36615C19.4084 3.39944 18.5814 3.32731 17.7666 3.40036C16.6004 3.50485 15.4426 3.69995 14.2802 3.85622C14.2736 3.81646 14.2671 3.77578 14.2606 3.73509C13.8251 3.73509 13.3794 3.67684 12.957 3.74896C12.3861 3.8479 11.7619 3.93389 11.2872 4.22701C10.4144 4.7661 9.593 5.40782 8.82676 6.09115C8.19788 6.65334 7.38678 6.95479 6.842 7.64829C6.27759 8.3686 5.70851 9.0621 5.41884 9.94331C5.37118 10.0876 5.25811 10.2623 5.12822 10.3197C4.36478 10.659 3.71067 11.0779 3.28082 11.8463C3.00329 12.3428 2.67904 12.7765 2.63138 13.3831C2.59961 13.7899 2.36039 14.1783 2.22397 14.5787C2.13052 14.8505 2.06044 15.1307 1.97073 15.4035C1.83617 15.8187 1.72123 16.2422 1.55023 16.6425C1.18953 17.4831 0.818559 18.3347 1.09796 19.2566C1.30634 19.9427 1.4166 20.6214 1.42501 21.3362C1.43249 22.0019 1.68759 22.6242 2.18846 23.0662C2.57251 23.4046 2.9818 23.8346 3.61909 23.6118C3.69291 23.5859 3.79664 23.6543 3.88728 23.6654C4.38721 23.7255 4.8591 23.8549 5.38706 23.6247C5.70851 23.4842 6.16172 23.5849 6.54391 23.6487C7.11112 23.744 7.66431 23.9964 8.22778 24.0075C8.83237 24.0205 9.29305 24.2072 9.74438 24.5706C10.1836 24.9229 10.6648 25.2253 11.1404 25.5295C11.3722 25.6775 11.7441 25.7145 11.8618 25.9123C12.273 26.6021 13.1112 26.8731 13.4523 27.6479C13.6364 28.064 14.1821 28.2508 14.0699 28.9064C13.9541 29.5851 14.5568 30.0179 14.9763 30.4867C15.0698 30.5912 15.11 30.7548 15.1408 30.8981C15.2006 31.1783 15.2501 31.4631 15.2782 31.7479C15.3071 32.0438 15.3567 32.3526 15.3053 32.6402C15.2128 33.159 15.0044 33.6601 14.939 34.1798C14.9044 34.4572 15.1128 34.7549 15.1352 35.049C15.2072 36.0088 15.8809 36.7735 16.8658 36.8891C17.6918 36.9852 18.5263 37.0185 19.357 37.0796C21.3754 37.2284 23.3396 36.8123 25.2982 36.4545C26.0542 36.3167 26.7326 35.7915 27.4876 35.613C28.3651 35.405 29.094 35.0462 29.7397 34.4258C30.1788 34.0041 30.7152 33.6814 31.2189 33.3291C31.6356 33.0378 32.0739 32.7761 32.4907 32.4849C32.7374 32.3138 33.0149 32.1492 33.184 31.9144C33.5428 31.4178 33.8335 30.8732 34.4231 30.5893C34.5464 30.5301 34.6885 30.4774 34.7791 30.3822C35.4762 29.648 36.1556 28.8981 36.8527 28.1648C38.017 26.9415 38.7393 25.5203 39.0991 23.8642C39.399 22.4837 39.5158 21.142 39.1318 19.7744ZM38.1702 23.3945C37.9189 24.1453 37.8011 24.9627 37.4273 25.6451C36.9667 26.4856 36.3191 27.2281 35.7192 27.9882C35.3706 28.4293 34.9716 28.8343 34.5679 29.2273C34.3091 29.4797 33.9811 29.6609 33.7176 29.9088C33.3279 30.274 32.9728 30.6744 32.5953 31.0507C32.3309 31.3152 32.0917 31.6444 31.7693 31.8015C31.2665 32.0494 30.7946 32.2722 30.4199 32.7281C30.1274 33.0841 29.6556 33.2912 29.2874 33.5936C28.4987 34.2408 27.5652 34.5931 26.6233 34.9417C26.1364 35.122 25.6729 35.3819 25.174 35.5076C24.7478 35.6149 24.2788 35.5409 23.8414 35.6167C22.9799 35.7647 22.1351 36.031 21.2698 36.116C20.4027 36.2011 19.5168 36.1503 18.6422 36.1114C18.1236 36.0883 17.6096 35.9727 17.0929 35.9024C16.4883 35.8211 16.2061 35.527 16.1257 34.9288C16.1014 34.7512 16.0201 34.5802 15.9566 34.4082C15.7557 33.8737 15.8706 33.8035 16.3051 33.4447C16.621 33.1849 16.8705 32.7225 16.9377 32.3166C17.0443 31.6684 16.9751 30.9915 16.9798 30.3276C16.9798 30.3119 16.9807 30.2943 16.9733 30.2814C16.6303 29.6776 16.8387 29.1616 17.1816 28.6244C17.4358 28.2259 17.234 27.7959 17.0873 27.389C16.877 26.8019 16.5827 26.2831 16.0332 25.953C15.9809 25.9771 15.9285 26.002 15.8762 26.0261C15.937 26.1777 15.9902 26.334 16.0612 26.481C16.2986 26.9739 16.5714 27.4528 16.7658 27.9623C16.8294 28.1278 16.7387 28.3941 16.6387 28.5698C16.3369 29.1034 16.136 29.6193 16.493 30.2148C16.5789 30.3581 16.563 30.5717 16.5621 30.7539C16.5602 31.1598 16.5443 31.5667 16.521 31.9726C16.5107 32.1317 16.4649 32.2879 16.3388 32.4423C16.2696 31.8524 16.2164 31.2588 16.1248 30.6725C16.0556 30.2259 15.9893 29.7913 15.4707 29.55C15.1679 29.4076 14.9306 29.1034 14.9969 28.6762C15.095 28.0511 14.8418 27.5721 14.2951 27.2448C14.2559 27.2207 14.1989 27.1921 14.1914 27.156C14.0101 26.3136 13.1878 25.9835 12.6963 25.3936C12.3739 25.0062 11.7413 24.8749 11.2535 24.6178C11.0732 24.5226 10.8704 24.4292 10.7452 24.2794C10.2864 23.7283 9.71635 23.3538 9.03794 23.1337C8.92581 23.0976 8.78938 23.0607 8.68379 23.0902C8.09976 23.2548 7.5746 23.0607 7.06533 22.8313C6.3972 22.5299 5.73842 22.5059 5.03665 22.7213C4.23956 22.9663 2.85191 22.6649 2.57251 21.8734C2.42861 21.4638 2.42954 21.0051 2.34357 20.5724C2.24452 20.0795 2.0595 19.5959 2.02773 19.1012C1.99596 18.601 1.94457 17.9953 2.18472 17.6051C2.77529 16.6425 2.85565 15.5144 3.36586 14.5417C3.39389 14.489 3.40137 14.4224 3.40324 14.3623C3.42099 13.3905 3.91718 12.6017 4.48252 11.8814C4.73295 11.5624 5.20485 11.3886 5.60666 11.2166C5.87858 11.101 6.058 11.0058 6.16265 10.6923C6.60932 9.34783 7.39893 8.2521 8.60623 7.44578C9.3052 6.97883 9.96491 6.44529 10.6031 5.89789C11.645 5.00559 12.8514 4.67918 14.2036 4.68565C15.4772 4.6912 16.7434 4.63757 18.0114 4.4101C18.7543 4.27695 19.5514 4.45356 20.3242 4.4628C20.7989 4.46835 21.2754 4.43691 21.7483 4.39161C22.4332 4.32595 23.1182 4.15027 23.7984 4.17061C24.973 4.20482 26.071 4.6163 27.098 5.15446C27.6717 5.4559 28.1632 5.90991 28.6977 6.28533C28.9865 6.48783 29.2668 6.73194 29.5911 6.84937C30.6984 7.25345 31.7674 7.73058 32.6551 8.5073C32.9719 8.78378 33.2513 9.19156 33.3634 9.59009C33.5428 10.2346 33.9895 10.634 34.4979 10.9077C35.4342 11.4117 35.9416 12.1644 36.1556 13.1547C36.2901 13.7761 36.4957 14.3022 37.0517 14.7396C37.5983 15.1686 37.7712 15.8834 37.8161 16.5917C37.8675 17.3961 37.5983 18.1978 37.8497 19.0088C38.0366 19.6135 38.1478 20.2413 38.2852 20.8609C38.4749 21.7143 38.4496 22.5576 38.1702 23.3945Z" fill="#622080"/>
<path d="M22.8729 17.2823C22.5159 17.3683 22.1534 17.4377 21.802 17.5431C21.146 17.7391 20.5069 17.9934 20.2032 18.6601C20.1125 18.8608 20.1266 19.1613 20.2069 19.3739C20.3732 19.815 20.6162 20.2283 20.8293 20.6528C21.2124 21.4156 21.8814 21.7319 22.7299 21.5081C23.4588 21.3148 24.1783 21.0883 24.895 20.8562C25.0081 20.8201 25.1389 20.6962 25.1735 20.5862C25.6622 19.0272 24.5904 17.2925 22.8729 17.2823ZM24.4129 20.4345C23.642 20.6047 22.9187 21.0171 22.0786 20.8784C21.817 20.8349 21.632 20.7961 21.4862 20.5437C21.2741 20.1775 20.9853 19.8548 20.7564 19.4969C20.4985 19.0919 20.5358 18.6758 20.9451 18.4382C21.6207 18.0471 22.3477 17.7715 23.1691 17.8196C24.0092 17.8695 24.8651 18.7859 24.8175 19.7022C24.9016 20.0397 24.7661 20.3569 24.4129 20.4345Z" fill="#622080"/>
<path d="M24.1456 12.8449C23.7951 11.8315 23.0831 11.1472 22.0384 10.9077C21.2011 10.7163 19.7341 10.8892 19.2257 11.9221C18.9603 12.4611 18.879 13.5698 19.2098 13.9184C19.8499 14.5925 20.6545 14.9467 21.4534 15.0151C22.401 14.9688 23.17 14.7996 23.6961 14.132C23.983 13.7677 24.3278 13.3719 24.1456 12.8449ZM23.3214 13.6262C22.9084 14.2846 22.3028 14.414 21.645 14.5222C21.0759 14.6165 19.7275 13.9832 19.4771 13.4302C19.1594 12.7293 19.5659 11.432 20.7395 11.2951C20.9245 11.2739 21.1114 11.2711 21.3291 11.2572C22.2898 11.2471 22.999 11.6262 23.4812 12.5434C23.74 13.0363 23.5662 13.236 23.3214 13.6262Z" fill="#622080"/>
<path d="M36.5578 17.5329C36.3709 18.6675 36.3345 19.8539 35.9551 20.9209C35.5561 22.0426 35.1767 23.2659 34.0386 23.9844C33.9077 24.0667 33.9003 24.3209 33.7834 24.4495C33.4181 24.8526 33.0359 25.2419 32.6388 25.6155C32.5687 25.6811 32.3967 25.6404 32.2715 25.6488C32.2939 25.5267 32.2743 25.3649 32.3472 25.2909C32.9667 24.6566 33.604 24.0389 34.2339 23.4148C34.2974 23.351 34.3656 23.2798 34.3983 23.1993C34.8291 22.1082 35.386 21.0448 35.6439 19.914C35.9074 18.7563 36.1663 17.5422 35.8794 16.3346C35.7757 15.8954 35.5346 15.4903 35.3767 15.0613C35.3206 14.9097 35.3243 14.7349 35.301 14.5712C35.4561 14.6637 35.671 14.7192 35.7561 14.8551C36.2663 15.6679 36.5541 16.5491 36.5578 17.5329Z" fill="#622080"/>
<path d="M24.5146 26.8018C24.0091 25.9197 23.4979 24.9867 22.0953 25.1457C21.3422 25.1448 20.3806 25.5017 20.0386 26.3358C19.9751 26.4911 19.9078 26.6501 19.8116 26.7861C19.4854 27.2503 19.7013 27.7033 19.9452 28.0556C20.4461 28.7787 22.2131 29.3557 23.155 28.5633C23.3727 28.3811 23.6503 28.2683 23.9035 28.1296C24.467 27.8217 24.7753 27.2577 24.5146 26.8018ZM23.383 27.8032C23.1204 27.9049 22.8625 28.0316 22.6252 28.1823C22.1523 28.4847 20.9834 28.2998 20.6329 27.8541C20.5573 27.7579 20.4451 27.6895 20.3778 27.5905C20.2134 27.3473 20.091 27.1291 20.2554 26.7916C20.6974 25.8854 21.2487 25.5137 22.2878 25.5313C23.2017 25.5461 23.7988 25.9992 24.0708 26.8822C24.1932 27.2826 23.9568 27.5822 23.383 27.8032Z" fill="#622080"/>
<path d="M19.9265 4.96949C18.8968 5.0675 17.8324 5.06751 17.0017 5.88399C16.3878 6.48687 16.0869 7.4476 16.9541 7.98668C17.7007 8.45087 18.5762 8.61638 19.1528 8.66816C20.5012 8.59604 20.6881 8.51929 21.0908 7.92565C21.2375 7.70928 21.3646 7.47719 21.4786 7.24232C21.9795 6.21502 21.0759 4.85945 19.9265 4.96949ZM21.0759 6.88355C20.8647 7.27006 20.5816 7.62051 20.3106 7.97096C20.247 8.05233 20.0947 8.12723 19.9985 8.11151C19.1556 7.97466 18.3043 7.85908 17.4829 7.63993C17.2269 7.57151 16.8728 7.19794 16.883 6.97879C16.898 6.66441 17.1503 6.30656 17.3988 6.068C18.0745 5.41795 18.964 5.32641 20.0704 5.27556C20.3134 5.41888 20.7572 5.60844 21.1049 5.90618C21.4254 6.18081 21.2394 6.58396 21.0759 6.88355Z" fill="#622080"/>
<path d="M16.5112 11.7297C16.3934 11.6576 16.2841 11.5688 16.1785 11.4792C15.1721 10.6238 13.3911 11.015 12.6342 11.9489C12.2707 12.3974 12.2324 12.9716 12.3781 13.4885C12.5389 14.0562 13.4854 14.5315 14.2078 14.6055C14.6143 14.4455 15.0777 14.3595 15.4141 14.108C15.9103 13.7353 16.3514 13.2739 16.7504 12.7968C17.1569 12.3114 17.0719 12.0746 16.5112 11.7297ZM14.1199 13.8824C13.7742 13.948 13.0472 13.6836 12.8538 13.383C12.6463 13.0613 12.7323 12.4649 13.0425 12.1523C13.9461 11.2443 15.1198 11.0871 16.1813 11.9443C16.2757 12.0201 16.3794 12.0839 16.5336 12.1921C15.744 12.8421 15.1693 13.6826 14.1199 13.8824Z" fill="#622080"/>
<path d="M30.3091 12.1939C29.7522 10.9456 28.6552 10.5295 27.3965 10.3881C26.6106 10.3002 25.7136 11.0298 25.7248 11.7973C25.7351 12.5841 25.9238 13.3442 26.4555 13.9693C26.7601 14.3281 27.09 14.5176 27.6292 14.3447C28.0824 14.1995 28.6057 14.1847 29.0869 14.2282C29.9942 14.3105 30.5203 13.8879 30.5624 12.966C30.4792 12.7081 30.4185 12.4408 30.3091 12.1939ZM29.3579 13.7677C28.7589 13.7751 28.1487 13.8019 27.5666 13.9258C27.119 14.0211 26.8255 13.9295 26.6545 13.544C26.4097 12.9929 26.2088 12.4242 25.9892 11.862C26.0303 11.8472 26.0715 11.8315 26.1126 11.8157C26.0845 11.3978 26.7592 10.7367 27.2246 10.7755C28.3636 10.8707 29.3794 11.2008 29.8858 12.3474C29.9896 12.5823 30.0755 12.8384 30.1017 13.0918C30.1447 13.4996 29.7728 13.7622 29.3579 13.7677Z" fill="#622080"/>
<path d="M10.299 11.0094C9.90654 10.842 9.47763 10.7588 9.18515 10.6765C8.07876 10.6848 6.73596 12.1708 6.72382 13.2554C6.72288 13.3784 6.71167 13.5023 6.72662 13.6225C6.77521 14.0284 7.09946 14.2994 7.40503 14.1579C8.18342 13.7991 8.97957 13.4598 9.71217 13.0215C10.2476 12.7015 10.4831 12.1107 10.5569 11.5022C10.5765 11.3441 10.4364 11.0676 10.299 11.0094ZM8.93378 12.9235C8.40301 13.1611 7.95074 13.5661 7.31625 13.5097C7.11815 13.0945 7.5779 11.9479 8.13483 11.4597C8.58523 11.064 9.46548 11.0621 10.0439 11.4616C9.89159 12.1088 9.61966 12.6165 8.93378 12.9235Z" fill="#622080"/>
<path d="M15.0029 18.7757C14.6749 18.2144 14.2292 17.6633 13.5732 17.5792C12.1715 17.3998 11.5642 18.3809 11.3782 19.4775C11.353 19.6227 11.4268 19.815 11.5174 19.9426C11.9445 20.5409 12.5061 20.8969 13.3919 20.7952C13.4387 20.7952 13.5956 20.8109 13.7489 20.7933C14.9553 20.6555 15.5496 19.7124 15.0029 18.7757ZM12.9434 20.3079C12.4033 20.2681 12.1762 19.8307 11.8127 19.5672C11.7772 19.5422 11.7987 19.4257 11.8118 19.3545C11.9202 18.7295 12.4668 18.1303 12.9976 18.0036C13.6199 17.8556 14.0012 18.2292 14.5198 18.8349C14.6562 18.993 14.7375 19.1973 14.8431 19.3776C14.4254 20.1211 13.7788 20.3689 12.9434 20.3079Z" fill="#622080"/>
<path d="M33.7255 17.1206C33.576 16.9449 33.4106 16.7831 33.2536 16.6129C32.7556 16.0729 32.3949 15.9462 31.7407 16.2948C31.3109 16.5242 30.9558 16.9098 30.6073 17.2648C30.1671 17.7142 30.0587 18.306 30.3204 18.8405C30.5699 19.3509 31.1287 19.4045 31.6043 19.3352C33.006 19.2769 33.2985 19.1169 33.8339 18.1793C34.0535 17.7947 34.004 17.4461 33.7255 17.1206ZM32.8163 18.6102C32.6472 18.686 32.4724 18.7646 32.2921 18.797C32.1127 18.8294 31.923 18.8044 31.7379 18.8044C31.7379 18.8118 31.7379 18.8192 31.737 18.8266C31.5361 18.8146 31.3259 18.834 31.1343 18.785C30.7951 18.6971 30.6456 18.2616 30.7633 17.9121C30.9549 17.3471 31.4062 17.0244 31.8557 16.698C31.9389 16.6379 32.0585 16.6176 32.165 16.6009C32.578 16.5334 33.3555 17.0938 33.4816 17.5422C33.5657 17.8418 33.2004 18.4391 32.8163 18.6102Z" fill="#622080"/>
<path d="M8.17593 20.5307C8.13948 20.5705 8.10304 20.6112 8.06753 20.6519C7.8171 20.5021 7.53116 20.3902 7.32278 20.1951C6.33507 19.2704 5.39034 19.3296 4.5129 20.3736C4.24191 20.6972 3.93354 20.9949 3.60929 21.2668C3.30466 21.5229 2.99443 21.3768 2.87482 20.9367C3.09348 20.92 3.33363 20.9607 3.51304 20.8756C3.82608 20.7259 4.05128 20.5067 4.1793 20.1202C4.483 19.2076 5.8585 18.6999 6.72193 19.177C7.19289 19.4378 7.58816 19.8382 8.00306 20.1914C8.09276 20.2681 8.11986 20.4161 8.17593 20.5307Z" fill="#622080"/>
<path d="M15.7449 25.3732C15.7075 25.412 15.6496 25.5248 15.5692 25.5433C15.4889 25.5618 15.3366 25.5128 15.302 25.4481C15.0899 25.0459 14.7497 24.8526 14.3152 24.7823C13.8676 24.7111 13.6359 24.3773 13.4452 24.0278C13.2256 23.6237 12.9332 23.3583 12.465 23.2705C12.0576 23.1938 11.6847 23.0273 11.5362 22.5983C11.4988 22.4901 11.5502 22.3514 11.5605 22.2275C11.6614 22.2682 11.767 22.3024 11.8642 22.3523C12.1978 22.5271 12.5472 22.6806 12.8537 22.8932C13.2247 23.1503 13.6564 23.399 13.8826 23.7606C14.1218 24.1443 14.3993 24.3357 14.803 24.4411C15.2384 24.5549 15.7374 25.0274 15.7449 25.3732Z" fill="#622080"/>
<path d="M29.8364 27.929C29.7915 28.0437 29.7794 28.212 29.6943 28.2665C29.0785 28.6623 28.4562 29.0506 27.8189 29.4094C27.4591 29.6128 27.0695 29.7645 26.6864 29.9235C26.5153 29.9956 26.3285 30.0298 26.1481 30.0816C26.1126 30.0215 26.0762 29.9623 26.0406 29.9022C26.1808 29.7626 26.2976 29.5804 26.4649 29.4889C27.4339 28.9582 28.4123 28.4422 29.3972 27.9392C29.514 27.8791 29.6887 27.929 29.8364 27.929Z" fill="#622080"/>
<path d="M20.8648 31.8755C20.7648 31.9522 20.6872 32.053 20.5891 32.0789C20.1611 32.1917 19.7276 32.2869 19.294 32.3813C18.908 32.4645 18.5735 32.5939 18.3371 32.9527C18.2222 33.1265 17.9652 33.2088 17.6858 33.3882C18.0315 32.0983 19.9761 31.2115 20.8648 31.8755Z" fill="#622080"/>
<path d="M24.0175 30.5569C23.954 30.6642 23.9157 30.8278 23.8213 30.8704C23.198 31.157 22.5589 31.4104 21.9319 31.6896C21.6777 31.8034 21.4403 31.9485 21.0572 31.5805C21.6039 31.3475 22.0589 31.1589 22.5093 30.9591C22.77 30.8426 23.0205 30.7039 23.2802 30.5828C23.4036 30.5255 23.5335 30.4561 23.6643 30.4496C23.7802 30.4441 23.8998 30.5181 24.0175 30.5569Z" fill="#622080"/>
<path d="M10.7484 21.7227C10.6157 21.6135 10.4896 21.5618 10.4662 21.4822C10.3111 20.9423 9.88217 20.9885 9.46073 20.9876C9.18507 20.9876 8.90754 20.9728 8.63561 20.9321C8.5702 20.9219 8.52441 20.7814 8.47021 20.7018C8.54684 20.6686 8.62346 20.6103 8.70196 20.6066C9.0692 20.59 9.43737 20.5853 9.80554 20.5826C10.5008 20.5752 10.8587 20.9737 10.7484 21.7227Z" fill="#622080"/>
<path d="M35.0534 13.5337C34.6366 13.5689 33.8442 12.6451 33.7535 12.0182C34.0937 11.9507 34.8842 12.8708 35.0534 13.5337Z" fill="#622080"/>
<path d="M31.7734 26.5152C31.4604 26.8397 31.1558 27.1717 30.8296 27.4814C30.7708 27.5369 30.6222 27.4999 30.5157 27.5064C30.5175 27.4112 30.4811 27.2863 30.5287 27.2244C30.7325 26.9581 30.9427 26.6909 31.1885 26.4643C31.2959 26.3645 31.4931 26.3608 31.6491 26.3136C31.6903 26.3811 31.7323 26.4477 31.7734 26.5152Z" fill="#622080"/>
<path d="M25.3165 30.2323C25.0791 30.3775 24.9277 30.4866 24.7595 30.5569C24.7268 30.5708 24.6287 30.433 24.5605 30.3655C24.7035 30.2518 24.8371 30.1232 24.9941 30.0345C25.0315 30.0132 25.1455 30.1232 25.3165 30.2323Z" fill="#622080"/>
<path d="M33.2434 11.027C33.1443 10.9262 33.0284 10.8337 32.9584 10.7163C32.9406 10.6867 33.0686 10.5721 33.1621 10.4565C33.2695 10.598 33.376 10.6923 33.4115 10.8069C33.4284 10.8578 33.3041 10.953 33.2434 11.027Z" fill="#622080"/>
</svg>
