<svg width="70" height="70" viewBox="0 0 70 70" fill="none" xmlns="http://www.w3.org/2000/svg">
<path d="M52.5 23.3333C57.3325 23.3333 61.25 19.4158 61.25 14.5833C61.25 9.75084 57.3325 5.83333 52.5 5.83333C47.6675 5.83333 43.75 9.75084 43.75 14.5833C43.75 19.4158 47.6675 23.3333 52.5 23.3333Z" stroke="#9B82B2" stroke-width="2" stroke-linecap="round" stroke-linejoin="round"/>
<path d="M17.5 43.75C22.3325 43.75 26.25 39.8325 26.25 35C26.25 30.1675 22.3325 26.25 17.5 26.25C12.6675 26.25 8.75 30.1675 8.75 35C8.75 39.8325 12.6675 43.75 17.5 43.75Z" stroke="#9B82B2" stroke-width="2" stroke-linecap="round" stroke-linejoin="round"/>
<path d="M52.5 64.1667C57.3325 64.1667 61.25 60.2492 61.25 55.4167C61.25 50.5842 57.3325 46.6667 52.5 46.6667C47.6675 46.6667 43.75 50.5842 43.75 55.4167C43.75 60.2492 47.6675 64.1667 52.5 64.1667Z" stroke="#9B82B2" stroke-width="2" stroke-linecap="round" stroke-linejoin="round"/>
<path d="M25.0537 39.4042L44.9745 51.0125" stroke="#9B82B2" stroke-width="2" stroke-linecap="round" stroke-linejoin="round"/>
<path d="M44.9454 18.9875L25.0537 30.5958" stroke="#9B82B2" stroke-width="2" stroke-linecap="round" stroke-linejoin="round"/>
</svg>
